<svg width="15" height="14" viewBox="0 0 15 14" fill="none" xmlns="http://www.w3.org/2000/svg">
<path d="M3.58873 4.8001C3.66095 4.86708 3.74566 4.91918 3.83802 4.95342C3.93038 4.98766 4.02858 5.00337 4.12701 4.99966C4.22545 4.99594 4.32218 4.97288 4.4117 4.93177C4.50121 4.89067 4.58176 4.83233 4.64873 4.7601L6.59873 2.6601V9.2501C6.59873 9.44901 6.67774 9.63978 6.8184 9.78043C6.95905 9.92108 7.14981 10.0001 7.34873 10.0001C7.54764 10.0001 7.7384 9.92108 7.87906 9.78043C8.01971 9.63978 8.09873 9.44901 8.09873 9.2501V2.6601L10.0487 4.7601C10.184 4.90597 10.3717 4.99213 10.5704 4.99963C10.6689 5.00335 10.7671 4.98764 10.8594 4.9534C10.9518 4.91916 11.0365 4.86707 11.1087 4.8001C11.181 4.73312 11.2393 4.65258 11.2804 4.56306C11.3215 4.47355 11.3445 4.37681 11.3483 4.27838C11.352 4.17995 11.3363 4.08175 11.302 3.9894C11.2678 3.89704 11.2157 3.81232 11.1487 3.7401L7.89873 0.240098C7.82852 0.164369 7.74343 0.103955 7.64879 0.0626404C7.55415 0.0213254 7.45199 0 7.34873 0C7.24546 0 7.14331 0.0213254 7.04867 0.0626404C6.95402 0.103955 6.86893 0.164369 6.79873 0.240098L3.54873 3.7401C3.48174 3.81232 3.42965 3.89703 3.3954 3.98939C3.36116 4.08175 3.34545 4.17995 3.34917 4.27838C3.35288 4.37682 3.37595 4.47355 3.41705 4.56307C3.45816 4.65259 3.51649 4.73313 3.58873 4.8001Z" fill="#C1D3EB"/>
<path d="M1.09863 8C1.29755 8 1.48831 8.07902 1.62896 8.21967C1.76962 8.36032 1.84863 8.55109 1.84863 8.75V11.75C1.84863 11.9489 1.92765 12.1397 2.0683 12.2803C2.20895 12.421 2.39972 12.5 2.59863 12.5H12.0986C12.2975 12.5 12.4883 12.421 12.629 12.2803C12.7696 12.1397 12.8486 11.9489 12.8486 11.75V8.75C12.8486 8.55109 12.9277 8.36032 13.0683 8.21967C13.209 8.07902 13.3997 8 13.5986 8C13.7975 8 13.9883 8.07902 14.129 8.21967C14.2696 8.36032 14.3486 8.55109 14.3486 8.75V11.75C14.3486 12.3467 14.1116 12.919 13.6896 13.341C13.2677 13.7629 12.6954 14 12.0986 14H2.59863C2.0019 14 1.4296 13.7629 1.00764 13.341C0.585686 12.919 0.348633 12.3467 0.348633 11.75V8.75C0.348633 8.55109 0.42765 8.36032 0.568303 8.21967C0.708955 8.07902 0.89972 8 1.09863 8Z" fill="#C1D3EB"/>
</svg>
